<svg id="Capa_1" enable-background="new 0 0 511.998 511.998" height="512" viewBox="0 0 511.998 511.998" width="512" xmlns="http://www.w3.org/2000/svg"><g><g><path d="m108.805 379.006c-5.32 0-10.882-.503-16.748-1.548l-20.025-3.081c-4.094-.63-6.902-4.46-6.272-8.554s4.463-6.899 8.554-6.272l20.114 3.095c.061.01.121.02.182.03 28.709 5.145 48.699-3.412 79.22-33.897.062-.062.124-.121.188-.181l12.427-11.578c3.029-2.825 7.776-2.656 10.6.375 2.823 3.03 2.656 7.776-.375 10.6l-12.332 11.49c-24.188 24.139-46.124 39.52-75.533 39.521z" fill="#c8c3ca"/><path d="m250.396 375.997-2.888 26.388-14.147 14.132-85.24 85.14c-3.81 3.8-9.98 3.8-13.78 0l-9.62-9.6c-3.8-3.8-3.8-9.96 0-13.76l85.1-85.29 29.05-29.11z" fill="#e9a761"/><path d="m249.072 368.707-24.25 24.3-99.45 99.7-.65-.65c-3.8-3.8-3.8-9.96 0-13.76l85.1-85.29 29.05-29.11z" fill="#e69642"/><path d="m262.096 375.638-14.587 26.747-14.062 14.047-23.54-23.51 29.05-29.11z" fill="#e69642"/><path d="m490.317 159.857-60.802 14.868 7.643 38.229-62.947 62.873-50.825 26.244-9.871 34.381-66.009 65.932-133.255-133.1c-3.915-3.91 15.062-13.587 20.217-18.736l12.083-27.851 62.669-62.941 45.28-18.419 15.333-42.457 74.741-75.065z" fill="#f9f8f9"/><path d="m490.322 159.857-33.4 33.36-64.93-64.85-75.97-75.88 28.55-28.67 134.54 125.58z" fill="#efedef"/><path d="m479.112 149.397-113.82-106.24-20.72-19.34-28.55 28.67.001.001-46.191 46.389-60.61 60.88-62.67 62.94-30.05 30.18c-5.16 5.15-6.16 12.5-2.25 16.41l12.92 12.9 51.74-51.94 62.7-62.93 60.43-60.66 26.953-27.059c3.901-3.917 10.241-3.925 14.152-.018l48.845 48.787 64.93 64.85 33.4-33.36z" fill="#efedef"/><path d="m490.322 159.857-53.16 53.1-195.55-45.641-11.032-8.254-21.358.695 39.85-26.66 20.76-34.22 9.629 9.64 22.582-1.865 177.069 42.745z" fill="#dc4955"/><path d="m490.322 159.857-33.4 33.36-64.93-64.85 87.12 21.03z" fill="#d82f3c"/><path d="m374.212 275.827-60.69 60.63-172.28-40.21-14.073-14.057-9.543-14.302c-3.91-3.91 2.877-13.07 8.037-18.22l20.889-26.971 8.725 14.31 23.634-6.758z" fill="#dc4955"/><path d="m302.042 106.657-60.43 60.66-32.39-7.56 60.61-60.88z" fill="#d82f3c"/><path d="m178.912 230.247-51.74 51.94-12.92-12.9c-3.91-3.91-2.91-11.26 2.25-16.41l30.05-30.18z" fill="#d82f3c"/><path d="m58.787 321.111 14.543 14.825c.624.636 1.407 1.094 2.268 1.326l20.044 5.401c2.679.722 4.258 3.487 3.518 6.161l-5.548 20.056c-.237.857-.241 1.761-.012 2.62l5.357 20.108c.714 2.681-.891 5.431-3.577 6.127l-20.094 5.21c-.863.224-1.651.674-2.281 1.305l-14.683 14.686c-1.966 1.966-5.158 1.951-7.105-.034l-14.543-14.825c-.624-.636-1.407-1.094-2.268-1.326l-20.044-5.401c-2.679-.722-4.258-3.487-3.518-6.161l5.548-20.056c.237-.857.241-1.761.012-2.62l-5.357-20.108c-.714-2.681.891-5.431 3.577-6.127l20.094-5.21c.863-.224 1.651-.674 2.281-1.305l14.683-14.686c1.966-1.966 5.158-1.951 7.105.034z" fill="#f8e837"/><path d="m70.762 406.487-12.44 12.45c-1.97 1.97-5.16 1.95-7.1-.03l-14.55-14.83c-.62-.64-1.41-1.09-2.27-1.33l-20.04-5.4c-2.68-.72-4.26-3.48-3.52-6.16l5.55-20.05c.24-.86.24-1.77.01-2.62l-5.35-20.11c-.72-2.68.89-5.43 3.57-6.13l18.61-4.82c-1.44 4.94-2.21 10.17-2.21 15.58 0 25.24 16.75 46.56 39.74 53.45z" fill="#f3d332"/><path d="m502.501 12.617-3.793 182.094c-.092 4.409-5.433 6.554-8.555 3.436l-151.774-151.598-20.74-24.708c-3.122-3.118-.974-8.453 3.44-8.545l176.306-5.788c2.85-.06 5.175 2.263 5.116 5.109z" fill="#dc4955"/><path d="m502.502 12.617-.12 5.75-164 28.18-26.74-26.71c-3.12-3.11-.98-8.45 3.44-8.54l182.3-3.79c2.85-.06 5.18 2.26 5.12 5.11z" fill="#d82f3c"/></g><path d="m500.732 97.505c4.124.091 7.573-3.199 7.654-7.342l1.612-77.389c.272-6.911-5.837-13.041-12.77-12.765l-182.305 3.789c-10.697-.14-16.404 14.049-8.583 21.35l13.772 13.757-208.914 208.669c-7.429 7.196-9.663 19.589-2.245 27.016l59.499 59.43c-24.699 23.485-42.751 31.767-65.647 29.76l4.926-17.806c1.156-3.88-1.347-8.266-5.277-9.241l-24.246-6.534-17.603-17.943c-2.782-2.952-7.847-2.977-10.657-.051l-17.771 17.774-24.308 6.301c-3.939.937-6.485 5.3-5.365 9.19l6.479 24.316-6.71 24.254c-1.156 3.88 1.347 8.266 5.277 9.241l24.246 6.534 17.603 17.943c2.782 2.952 7.847 2.977 10.657.051l17.771-17.774 24.308-6.302c3.939-.937 6.485-5.3 5.365-9.19l-4.192-15.733c1.858.117 3.697.196 5.496.196 27.262 0 48.102-13.222 70.264-34.381l34.436 34.396-94.079 93.967c-6.693 6.414-6.692 17.962 0 24.375l9.612 9.601c6.722 6.713 17.658 6.714 24.379 0l38.34-38.294c2.931-2.928 2.934-7.676.007-10.606-2.928-2.932-7.677-2.933-10.606-.007l-38.341 38.295c-.874.874-2.302.875-3.178-.001l-9.612-9.601c-.915-1.139-.915-2.01 0-3.149l94.091-93.979 12.777 12.763-30.952 30.915c-2.931 2.928-2.934 7.676-.007 10.606 2.928 2.932 7.677 2.933 10.606.007l36.266-36.223 80.117-80.023c2.931-2.928 2.934-7.676.007-10.606-2.927-2.932-7.676-2.933-10.606-.007l-11.162 11.149-166.131-38.775-25.48-25.45c-.565-1.717.267-3.639 2.246-5.79l27.242-27.211 210.315 49.088-12.241 12.227c-2.931 2.928-2.934 7.676-.007 10.606 2.927 2.931 7.676 2.934 10.606.007l113.353-113.221 13.785 13.769c7.345 7.818 21.479 2.094 21.353-8.586l1.452-69.705c.346-9.725-14.931-10.048-14.996-.313l-1.331 63.873-170.246-170.049 173.865-3.613-1.558 74.791c-.086 4.14 3.201 7.568 7.342 7.654zm-428.646 298.523c-1.295.335-2.477 1.011-3.422 1.957l-13.86 13.863-13.729-13.995c-.937-.955-2.11-1.642-3.402-1.989l-18.929-5.102 5.239-18.938c.355-1.285.362-2.643.019-3.931l-5.059-18.988 18.976-4.92c1.295-.335 2.477-1.011 3.422-1.957l13.86-13.863 13.729 13.995c.937.955 2.11 1.642 3.402 1.989l18.929 5.102-5.182 18.731c-.372 1.346-.445 2.78-.076 4.139l5.059 18.988zm226.577-55.34-51.155 51.095-82.352-82.256zm106.461-216.871-119.838-28.926 45.439-45.387zm29.675 80.893-133.959-31.266c-4.041-.941-8.067 1.565-9.009 5.599s1.565 8.067 5.599 9.008l124.868 29.145-50.442 50.383-210.315-49.088 50.442-50.383 51.271 11.967c.574.134 1.147.198 1.712.198 3.406 0 6.489-2.336 7.297-5.797.941-4.034-1.565-8.067-5.599-9.008l-42.181-9.845 48.36-48.304 152.652 36.847 34.96 34.919z"/></g></svg>