<svg id="Capa_1" enable-background="new 0 0 512 512" height="512" viewBox="0 0 512 512" width="512" xmlns="http://www.w3.org/2000/svg"><g><g><path d="m160 337.388h-86v-144c0-13.807 11.193-25 25-25h36c13.807 0 25 11.193 25 25z" fill="#d3effd"/><path d="m299 337.303h-86v-39.915c0-13.807 11.193-25 25-25h36c13.807 0 25 11.193 25 25z" fill="#b7e546"/><path d="m438 337.388h-86v-88c0-13.807 11.193-25 25-25h36c13.807 0 25 11.193 25 25z" fill="#e592d0"/><path d="m119 168.388c-13.81 0-25 11.19-25 25v144h-20v-144c0-13.81 11.19-25 25-25z" fill="#b2e5fb"/><path d="m258 272.388c-13.81 0-25 11.19-25 25v39.91h-20v-39.91c0-13.81 11.19-25 25-25z" fill="#abd641"/><path d="m397 224.388c-13.81 0-25 11.19-25 25v88h-20v-88c0-13.81 11.19-25 25-25z" fill="#e172c1"/><path d="m478.5 372.388v127c0 2.761-2.239 5-5 5h-435c-2.761 0-5-2.239-5-5v-127l224.5-10z" fill="#407194"/><path d="m33.5 372.388h445v20h-445z" fill="#407194"/><path d="m478.5 392.388v-20h-425-20v20 107c0 2.761 2.239 5 5 5h20c-2.76 0-5-2.24-5-5v-97c0-5.523 4.477-10 10-10z" fill="#365f7e"/><path d="m482 372.388h-224-2-226c-12.426 0-22.5-10.074-22.5-22.5 0-12.426 10.074-22.5 22.5-22.5h452c12.426 0 22.5 10.074 22.5 22.5 0 12.426-10.074 22.5-22.5 22.5z" fill="#407194"/><path d="m50 372.388h-20c-12.43 0-22.5-10.07-22.5-22.5 0-6.22 2.52-11.84 6.59-15.91s9.69-6.59 15.91-6.59h20c-6.22 0-11.84 2.52-15.91 6.59s-6.59 9.69-6.59 15.91c0 12.43 10.07 22.5 22.5 22.5z" fill="#365f7e"/><g fill="#ecb880"><path d="m286.964 178.965-44.484-20.743c-10.473-4.884-15.005-17.333-10.121-27.807l5.949-12.757 29.543-41.526 10.183-43.667 5.949-12.757c4.884-10.473 17.333-15.005 27.807-10.121l44.484 20.743c10.473 4.884 15.005 17.333 10.121 27.807l-51.624 110.707c-4.884 10.473-17.334 15.005-27.807 10.121z"/><path d="m471.883 194.026-138.665-64.661 3.74-19.446 11.052-12.275 138.665 64.661c6.006 2.801 8.605 9.941 5.804 15.947l-4.649 9.969c-2.801 6.008-9.941 8.606-15.947 5.805z"/><path d="m366.1 106.088-14.79 31.72-18.09-8.44 3.74-19.451 11.05-12.27z"/></g><path d="m360.991 117.046 5.109-10.958-18.09-8.44-2 2.221v-.001l-9.05 10.05-3.74 19.45 18.09 8.44.002-.003 120.568 56.224c6.01 2.8 13.15.2 15.95-5.81l2.72-5.82-127.124-58.699c-2.513-1.163-3.605-4.145-2.435-6.654z" fill="#e9a761"/><path d="m252.377 48.811h94v90.931h-94z" fill="#faf063" transform="matrix(.423 -.906 .906 .423 87.411 325.761)"/><path d="m315.12 168.107-.35.74c-4.88 10.47-17.33 15-27.81 10.12l-44.48-20.75c-10.47-4.88-15-17.33-10.12-27.8l5.95-12.76 29.54-41.53 10.18-43.66 5.95-12.76c4.89-10.47 17.34-15 27.81-10.12l1.84.86-5.6 12.02-39.72 85.19-5.95 12.76c-4.88 10.47-.35 22.92 10.12 27.8z" fill="#e9a761"/><path d="m298.84 42.167-30.53 65.49-5.95 12.76c-1.14 2.45-1.77 5.02-1.92 7.56l-22.13-10.32 39.72-85.19z" fill="#f8e837"/><path d="m128.362 412.581 7.512 11.654c.541.839 1.375 1.445 2.34 1.7l13.405 3.543c2.811.743 3.915 4.142 2.078 6.395l-8.763 10.746c-.631.773-.949 1.754-.894 2.751l.773 13.844c.162 2.903-2.729 5.004-5.44 3.952l-12.928-5.013c-.93-.361-1.962-.361-2.892 0l-12.928 5.013c-2.711 1.051-5.602-1.049-5.44-3.952l.773-13.844c.056-.996-.263-1.977-.894-2.751l-8.763-10.746c-1.837-2.253-.733-5.652 2.078-6.395l13.405-3.543c.965-.255 1.799-.861 2.34-1.7l7.512-11.654c1.577-2.444 5.151-2.444 6.726 0z" fill="#faf063"/><path d="m259.362 412.581 7.512 11.654c.541.839 1.375 1.445 2.34 1.7l13.405 3.543c2.811.743 3.915 4.142 2.078 6.395l-8.763 10.746c-.631.773-.949 1.754-.894 2.751l.773 13.844c.162 2.903-2.729 5.004-5.44 3.952l-12.928-5.013c-.93-.361-1.962-.361-2.892 0l-12.928 5.013c-2.711 1.051-5.602-1.049-5.44-3.952l.773-13.844c.056-.996-.263-1.977-.894-2.751l-8.763-10.746c-1.837-2.253-.733-5.652 2.078-6.395l13.405-3.543c.965-.255 1.799-.861 2.34-1.7l7.512-11.654c1.577-2.444 5.151-2.444 6.726 0z" fill="#faf063"/><path d="m390.362 412.581 7.512 11.654c.541.839 1.375 1.445 2.34 1.7l13.405 3.543c2.811.743 3.915 4.142 2.078 6.395l-8.763 10.746c-.631.773-.949 1.754-.894 2.751l.773 13.844c.162 2.903-2.729 5.004-5.44 3.952l-12.928-5.013c-.93-.361-1.962-.361-2.892 0l-12.928 5.013c-2.711 1.051-5.602-1.049-5.44-3.952l.773-13.844c.056-.996-.263-1.977-.894-2.751l-8.763-10.746c-1.837-2.253-.733-5.652 2.078-6.395l13.405-3.543c.965-.255 1.799-.861 2.34-1.7l7.512-11.654c1.577-2.444 5.151-2.444 6.726 0z" fill="#faf063"/><path d="m115.19 462.008c-.05 1.18.2 2.26.66 3.13l-5.22 2.03c-2.71 1.05-5.61-1.05-5.44-3.95l.77-13.85c.05-.99-.26-1.97-.89-2.75l-8.77-10.74c-1.83-2.26-.73-5.66 2.08-6.4l8.22-2.17 8.47 13.35c.63.99.94 2.26.89 3.54z" fill="#f8e837"/><path d="m246.19 462.008c-.05 1.18.2 2.26.66 3.13l-5.22 2.03c-2.71 1.05-5.61-1.05-5.44-3.95l.77-13.85c.05-.99-.26-1.97-.89-2.75l-8.77-10.74c-1.83-2.26-.73-5.66 2.08-6.4l8.22-2.17 8.47 13.35c.63.99.94 2.26.89 3.54z" fill="#f8e837"/><path d="m377.19 462.008c-.05 1.18.2 2.26.66 3.13l-5.22 2.03c-2.71 1.05-5.61-1.05-5.44-3.95l.77-13.85c.05-.99-.26-1.97-.89-2.75l-8.77-10.74c-1.83-2.26-.73-5.66 2.08-6.4l8.22-2.17 8.47 13.35c.63.99.94 2.26.89 3.54z" fill="#f8e837"/></g><g><path d="m512 349.888c0-16.542-13.458-30-30-30h-36.5v-70.5c0-17.921-14.58-32.5-32.5-32.5h-36c-17.92 0-32.5 14.579-32.5 32.5v70.5h-38v-22.5c0-17.921-14.58-32.5-32.5-32.5h-36c-17.92 0-32.5 14.579-32.5 32.5v22.5h-38v-59.5c0-4.143-3.358-7.5-7.5-7.5s-7.5 3.357-7.5 7.5v59.5h-71v-126.5c0-9.649 7.851-17.5 17.5-17.5h36c9.649 0 17.5 7.851 17.5 17.5v32c0 4.143 3.358 7.5 7.5 7.5s7.5-3.357 7.5-7.5v-32c0-17.921-14.58-32.5-32.5-32.5h-36c-17.92 0-32.5 14.579-32.5 32.5v126.5h-36.5c-16.542 0-30 13.458-30 30 0 15.185 11.343 27.763 26 29.726v124.774c0 4.143 3.358 7.5 7.5 7.5h445c4.142 0 7.5-3.357 7.5-7.5v-124.775c14.657-1.963 26-14.54 26-29.725zm-291.5-52.5c0-9.649 7.851-17.5 17.5-17.5h36c9.649 0 17.5 7.851 17.5 17.5v22.415h-71zm139-48c0-9.649 7.851-17.5 17.5-17.5h36c9.649 0 17.5 7.851 17.5 17.5v70.5h-71zm122.5 115.5h-140c-4.142 0-7.5 3.357-7.5 7.5s3.358 7.5 7.5 7.5h129v117h-430v-117h266c4.142 0 7.5-3.357 7.5-7.5s-3.358-7.5-7.5-7.5h-277c-8.271 0-15-6.729-15-15s6.729-15 15-15h452c8.271 0 15 6.729 15 15s-6.729 15-15 15z"/><path d="m239.311 165.019 44.484 20.743c13.731 6.745 31.597.23 37.773-13.748l15.247-32.696 131.899 61.507c9.421 4.625 21.677.158 25.914-9.433l4.649-9.97c4.544-9.744.313-21.369-9.432-25.913l-47.675-22.231c-3.753-1.752-8.216-.127-9.967 3.627s-.126 8.217 3.628 9.967l47.675 22.231c2.249 1.049 3.225 3.731 2.176 5.98l-4.649 9.97c-1.049 2.248-3.73 3.223-5.98 2.177l-131.868-61.492 8.453-18.126 54.193 25.271c3.753 1.753 8.216.128 9.967-3.627 1.75-3.754.126-8.217-3.628-9.967l-54.224-25.286 15.246-32.696c6.743-13.713.232-31.604-13.749-37.773l-44.484-20.744c-13.715-6.745-31.603-.231-37.774 13.748l-51.624 110.707c-6.623 14.205-.455 31.15 13.75 37.774zm61.087 7.596c-3.37 1.227-7.014 1.066-10.265-.447l-44.483-20.743c-6.708-3.129-9.622-11.132-6.493-17.84l2.779-5.96 68.816 32.09-2.779 5.959c-1.515 3.25-4.205 5.716-7.575 6.941zm-18.736-130.183 68.816 32.089-33.387 71.6-68.816-32.09zm16.693-26.496c3.363-1.226 7.01-1.07 10.265.447l44.483 20.743c6.602 2.914 9.678 11.364 6.493 17.84l-2.779 5.96-68.816-32.089 2.779-5.96c1.515-3.249 4.206-5.715 7.575-6.941z"/><path d="m159.536 423.813-18.093-4.782-10.139-15.729c-2.732-4.525-9.876-4.525-12.607 0l-10.139 15.729-18.093 4.782c-5.148 1.2-7.355 7.995-3.896 11.991l11.827 14.503-1.043 18.685c-.449 5.267 5.329 9.465 10.2 7.41l17.447-6.765 17.448 6.766c4.856 2.058 10.655-2.144 10.2-7.41l-1.043-18.685 11.827-14.503c3.459-3.997 1.251-10.791-3.896-11.992zm-21.394 19.268c-1.183 1.45-1.78 3.29-1.676 5.158l.557 9.972-9.312-3.61c-.872-.339-1.792-.508-2.711-.508s-1.839.169-2.711.508l-9.312 3.61.557-9.972c.104-1.868-.493-3.708-1.676-5.158l-6.311-7.739 9.655-2.552c1.809-.479 3.374-1.615 4.387-3.188l5.411-8.395 5.411 8.395c1.014 1.572 2.578 2.709 4.387 3.188l9.655 2.552z"/><path d="m290.536 423.813-18.093-4.782-10.139-15.729c-2.732-4.525-9.876-4.525-12.607 0l-10.139 15.729-18.093 4.782c-5.148 1.2-7.355 7.995-3.896 11.991l11.827 14.503-1.043 18.685c-.449 5.267 5.329 9.466 10.2 7.41l17.447-6.765 17.448 6.766c4.856 2.058 10.655-2.144 10.2-7.41l-1.043-18.685 11.827-14.503c3.459-3.997 1.251-10.791-3.896-11.992zm-21.394 19.268c-1.183 1.45-1.78 3.29-1.676 5.158l.557 9.972-9.312-3.61c-.872-.339-1.792-.508-2.711-.508s-1.839.169-2.711.508l-9.312 3.61.557-9.972c.104-1.868-.493-3.708-1.676-5.158l-6.311-7.739 9.655-2.552c1.809-.479 3.374-1.615 4.387-3.188l5.411-8.395 5.411 8.395c1.014 1.572 2.578 2.709 4.387 3.188l9.655 2.552z"/><path d="m360.395 450.308-1.043 18.685c-.449 5.267 5.329 9.465 10.2 7.41l17.448-6.766 17.448 6.766c4.856 2.058 10.655-2.144 10.2-7.41l-1.043-18.685 11.827-14.503c3.459-3.997 1.252-10.791-3.896-11.991l-18.093-4.782-10.139-15.729c-2.732-4.525-9.876-4.525-12.607 0l-10.139 15.729-18.093 4.782c-5.148 1.2-7.355 7.995-3.896 11.991zm16.807-17.518c1.809-.479 3.374-1.615 4.387-3.188l5.411-8.395 5.411 8.395c1.014 1.572 2.578 2.709 4.387 3.188l9.655 2.552-6.311 7.739c-1.183 1.45-1.78 3.29-1.676 5.158l.557 9.972-9.312-3.61c-.872-.339-1.792-.508-2.711-.508s-1.839.169-2.711.508l-9.312 3.61.557-9.972c.104-1.868-.493-3.708-1.676-5.158l-6.311-7.739z"/></g></g></svg>